<?xml version="1.0" standalone="no"?>
<!DOCTYPE svg PUBLIC "-//W3C//DTD SVG 20010904//EN"
 "http://www.w3.org/TR/2001/REC-SVG-20010904/DTD/svg10.dtd">
<svg version="1.0" xmlns="http://www.w3.org/2000/svg"
 width="447.000000pt" height="416.000000pt" viewBox="0 0 447.000000 416.000000"
 preserveAspectRatio="xMidYMid meet">

<g transform="translate(0.000000,416.000000) scale(0.100000,-0.100000)"
fill="#000000" stroke="none">
<path d="M2247 2941 c-11 -149 -9 -229 9 -262 l15 -31 32 25 c68 51 148 176
166 260 6 24 13 51 17 60 5 14 0 17 -28 17 -31 0 -114 -12 -175 -25 -18 -4
-22 0 -25 22 -2 16 -7 -14 -11 -66z"/>
<path d="M2995 2321 c-80 -20 -126 -65 -151 -148 -55 -182 59 -340 229 -319
71 8 126 43 154 96 l24 45 -38 5 c-32 4 -40 1 -54 -20 -59 -92 -172 -91 -229
2 -11 18 -20 45 -20 61 l0 27 170 0 170 0 0 39 c0 96 -59 181 -144 206 -54 16
-65 17 -111 6z m123 -79 c14 -9 31 -31 38 -49 27 -63 28 -63 -117 -63 l-131 0
6 32 c18 88 126 131 204 80z"/>
<path d="M3316 2308 c4 -7 36 -55 72 -107 36 -52 65 -100 65 -106 0 -6 -31
-56 -70 -111 -38 -54 -73 -105 -77 -111 -5 -10 5 -13 38 -13 l45 0 58 85 c32
46 60 84 63 84 3 0 30 -38 59 -85 55 -84 55 -84 98 -84 24 0 43 2 43 5 0 2
-35 55 -79 117 l-79 113 74 107 c41 58 74 109 74 112 0 3 -18 6 -40 6 -38 0
-43 -4 -88 -66 -26 -37 -52 -73 -58 -81 -8 -12 -21 1 -63 66 l-54 81 -44 0
c-32 0 -42 -3 -37 -12z"/>
</g>
</svg>
